# xmcd
#
# Track frame offsets:
#	150
#	14162
#	33528
#	50794
#	69645
#	89432
#	105812
#	125258
#	141303
#	149218
#
# Disc length: 2264 seconds
#
# Revision: 2
# Processed by: cddbd v1.4PL0 Copyright (c) Steve Scherf et al.
# Submitted via: EasyCDDAExtractor 5.0.6
#
DISCID=9a08d60a
DTITLE=G. Love and Special Sauce - Oh Yeah
DYEAR=1992
DGENRE=Rap
TTITLE0=Sause
TTITLE1=What's Goin' On
TTITLE2=Writing on the Walls
TTITLE3=Girls at the Laundromat
TTITLE4=Run for Me
TTITLE5=Mother
TTITLE6=Rhyme for the Summertime
TTITLE7=Leaving the City
TTITLE8=The Fat One
TTITLE9=Shootin Hoops
EXTD=
EXTT0=
EXTT1=
EXTT2=
EXTT3=
EXTT4=
EXTT5=
EXTT6=
EXTT7=
EXTT8=
EXTT9=
PLAYORDER=
